<?xml version="1.0" encoding="utf-8" standalone="no"?>
<!DOCTYPE svg PUBLIC "-//W3C//DTD SVG 1.1//EN"
  "http://www.w3.org/Graphics/SVG/1.1/DTD/svg11.dtd">
<svg xmlns:xlink="http://www.w3.org/1999/xlink" width="720pt" height="288pt" viewBox="0 0 720 288" xmlns="http://www.w3.org/2000/svg" version="1.1">
 <metadata>
  <rdf:RDF xmlns:dc="http://purl.org/dc/elements/1.1/" xmlns:cc="http://creativecommons.org/ns#" xmlns:rdf="http://www.w3.org/1999/02/22-rdf-syntax-ns#">
   <cc:Work>
    <dc:type rdf:resource="http://purl.org/dc/dcmitype/StillImage"/>
    <dc:date>2021-12-19T22:13:11.218674</dc:date>
    <dc:format>image/svg+xml</dc:format>
    <dc:creator>
     <cc:Agent>
      <dc:title>Matplotlib v3.5.1, https://matplotlib.org/</dc:title>
     </cc:Agent>
    </dc:creator>
   </cc:Work>
  </rdf:RDF>
 </metadata>
 <defs>
  <style type="text/css">*{stroke-linejoin: round; stroke-linecap: butt}</style>
 </defs>
 <g id="figure_1">
  <g id="patch_1">
   <path d="M 0 288 
L 720 288 
L 720 0 
L 0 0 
z
" style="fill: #ffffff"/>
  </g>
  <g id="axes_1">
   <g id="patch_2">
    <path d="M 216.818182 34.56 
L 130.128707 76.307451 
L 108.718175 170.113121 
L 168.709153 245.339428 
L 264.927211 245.339428 
L 324.918189 170.113121 
L 303.507657 76.307451 
z
" style="fill: #ffffff"/>
   </g>
   <g id="patch_3">
    <path d="M 216.818182 105.899253 
L 185.903981 120.786747 
L 178.268804 154.238644 
L 170.183102 242.27874 
L 233.974269 181.064982 
L 255.36756 154.238644 
L 247.732383 120.786747 
z
" clip-path="url(#p8cbe266d65)" style="fill: #ff0000; opacity: 0.5"/>
   </g>
   <g id="matplotlib.axis_1">
    <g id="xtick_1">
     <g id="line2d_1">
      <path d="M 216.818182 145.44 
L 216.818182 34.56 
" clip-path="url(#p8cbe266d65)" style="fill: none; stroke: #b0b0b0; stroke-width: 0.8; stroke-linecap: square"/>
     </g>
     <g id="text_1">
      <!-- angry -->
      <g transform="translate(208.165057 22.215625)scale(0.06 -0.06)">
       <defs>
        <path id="DejaVuSans-61" d="M 2194 1759 
Q 1497 1759 1228 1600 
Q 959 1441 959 1056 
Q 959 750 1161 570 
Q 1363 391 1709 391 
Q 2188 391 2477 730 
Q 2766 1069 2766 1631 
L 2766 1759 
L 2194 1759 
z
M 3341 1997 
L 3341 0 
L 2766 0 
L 2766 531 
Q 2569 213 2275 61 
Q 1981 -91 1556 -91 
Q 1019 -91 701 211 
Q 384 513 384 1019 
Q 384 1609 779 1909 
Q 1175 2209 1959 2209 
L 2766 2209 
L 2766 2266 
Q 2766 2663 2505 2880 
Q 2244 3097 1772 3097 
Q 1472 3097 1187 3025 
Q 903 2953 641 2809 
L 641 3341 
Q 956 3463 1253 3523 
Q 1550 3584 1831 3584 
Q 2591 3584 2966 3190 
Q 3341 2797 3341 1997 
z
" transform="scale(0.015625)"/>
        <path id="DejaVuSans-6e" d="M 3513 2113 
L 3513 0 
L 2938 0 
L 2938 2094 
Q 2938 2591 2744 2837 
Q 2550 3084 2163 3084 
Q 1697 3084 1428 2787 
Q 1159 2491 1159 1978 
L 1159 0 
L 581 0 
L 581 3500 
L 1159 3500 
L 1159 2956 
Q 1366 3272 1645 3428 
Q 1925 3584 2291 3584 
Q 2894 3584 3203 3211 
Q 3513 2838 3513 2113 
z
" transform="scale(0.015625)"/>
        <path id="DejaVuSans-67" d="M 2906 1791 
Q 2906 2416 2648 2759 
Q 2391 3103 1925 3103 
Q 1463 3103 1205 2759 
Q 947 2416 947 1791 
Q 947 1169 1205 825 
Q 1463 481 1925 481 
Q 2391 481 2648 825 
Q 2906 1169 2906 1791 
z
M 3481 434 
Q 3481 -459 3084 -895 
Q 2688 -1331 1869 -1331 
Q 1566 -1331 1297 -1286 
Q 1028 -1241 775 -1147 
L 775 -588 
Q 1028 -725 1275 -790 
Q 1522 -856 1778 -856 
Q 2344 -856 2625 -561 
Q 2906 -266 2906 331 
L 2906 616 
Q 2728 306 2450 153 
Q 2172 0 1784 0 
Q 1141 0 747 490 
Q 353 981 353 1791 
Q 353 2603 747 3093 
Q 1141 3584 1784 3584 
Q 2172 3584 2450 3431 
Q 2728 3278 2906 2969 
L 2906 3500 
L 3481 3500 
L 3481 434 
z
" transform="scale(0.015625)"/>
        <path id="DejaVuSans-72" d="M 2631 2963 
Q 2534 3019 2420 3045 
Q 2306 3072 2169 3072 
Q 1681 3072 1420 2755 
Q 1159 2438 1159 1844 
L 1159 0 
L 581 0 
L 581 3500 
L 1159 3500 
L 1159 2956 
Q 1341 3275 1631 3429 
Q 1922 3584 2338 3584 
Q 2397 3584 2469 3576 
Q 2541 3569 2628 3553 
L 2631 2963 
z
" transform="scale(0.015625)"/>
        <path id="DejaVuSans-79" d="M 2059 -325 
Q 1816 -950 1584 -1140 
Q 1353 -1331 966 -1331 
L 506 -1331 
L 506 -850 
L 844 -850 
Q 1081 -850 1212 -737 
Q 1344 -625 1503 -206 
L 1606 56 
L 191 3500 
L 800 3500 
L 1894 763 
L 2988 3500 
L 3597 3500 
L 2059 -325 
z
" transform="scale(0.015625)"/>
       </defs>
       <use xlink:href="#DejaVuSans-61"/>
       <use xlink:href="#DejaVuSans-6e" x="61.279297"/>
       <use xlink:href="#DejaVuSans-67" x="124.658203"/>
       <use xlink:href="#DejaVuSans-72" x="188.134766"/>
       <use xlink:href="#DejaVuSans-79" x="229.248047"/>
      </g>
     </g>
    </g>
    <g id="xtick_2">
     <g id="line2d_2">
      <path d="M 216.818182 145.44 
L 130.128707 76.307451 
" clip-path="url(#p8cbe266d65)" style="fill: none; stroke: #b0b0b0; stroke-width: 0.8; stroke-linecap: square"/>
     </g>
     <g id="text_2">
      <!-- disgust -->
      <g transform="translate(108.337598 69.234219)scale(0.06 -0.06)">
       <defs>
        <path id="DejaVuSans-64" d="M 2906 2969 
L 2906 4863 
L 3481 4863 
L 3481 0 
L 2906 0 
L 2906 525 
Q 2725 213 2448 61 
Q 2172 -91 1784 -91 
Q 1150 -91 751 415 
Q 353 922 353 1747 
Q 353 2572 751 3078 
Q 1150 3584 1784 3584 
Q 2172 3584 2448 3432 
Q 2725 3281 2906 2969 
z
M 947 1747 
Q 947 1113 1208 752 
Q 1469 391 1925 391 
Q 2381 391 2643 752 
Q 2906 1113 2906 1747 
Q 2906 2381 2643 2742 
Q 2381 3103 1925 3103 
Q 1469 3103 1208 2742 
Q 947 2381 947 1747 
z
" transform="scale(0.015625)"/>
        <path id="DejaVuSans-69" d="M 603 3500 
L 1178 3500 
L 1178 0 
L 603 0 
L 603 3500 
z
M 603 4863 
L 1178 4863 
L 1178 4134 
L 603 4134 
L 603 4863 
z
" transform="scale(0.015625)"/>
        <path id="DejaVuSans-73" d="M 2834 3397 
L 2834 2853 
Q 2591 2978 2328 3040 
Q 2066 3103 1784 3103 
Q 1356 3103 1142 2972 
Q 928 2841 928 2578 
Q 928 2378 1081 2264 
Q 1234 2150 1697 2047 
L 1894 2003 
Q 2506 1872 2764 1633 
Q 3022 1394 3022 966 
Q 3022 478 2636 193 
Q 2250 -91 1575 -91 
Q 1294 -91 989 -36 
Q 684 19 347 128 
L 347 722 
Q 666 556 975 473 
Q 1284 391 1588 391 
Q 1994 391 2212 530 
Q 2431 669 2431 922 
Q 2431 1156 2273 1281 
Q 2116 1406 1581 1522 
L 1381 1569 
Q 847 1681 609 1914 
Q 372 2147 372 2553 
Q 372 3047 722 3315 
Q 1072 3584 1716 3584 
Q 2034 3584 2315 3537 
Q 2597 3491 2834 3397 
z
" transform="scale(0.015625)"/>
        <path id="DejaVuSans-75" d="M 544 1381 
L 544 3500 
L 1119 3500 
L 1119 1403 
Q 1119 906 1312 657 
Q 1506 409 1894 409 
Q 2359 409 2629 706 
Q 2900 1003 2900 1516 
L 2900 3500 
L 3475 3500 
L 3475 0 
L 2900 0 
L 2900 538 
Q 2691 219 2414 64 
Q 2138 -91 1772 -91 
Q 1169 -91 856 284 
Q 544 659 544 1381 
z
M 1991 3584 
L 1991 3584 
z
" transform="scale(0.015625)"/>
        <path id="DejaVuSans-74" d="M 1172 4494 
L 1172 3500 
L 2356 3500 
L 2356 3053 
L 1172 3053 
L 1172 1153 
Q 1172 725 1289 603 
Q 1406 481 1766 481 
L 2356 481 
L 2356 0 
L 1766 0 
Q 1100 0 847 248 
Q 594 497 594 1153 
L 594 3053 
L 172 3053 
L 172 3500 
L 594 3500 
L 594 4494 
L 1172 4494 
z
" transform="scale(0.015625)"/>
       </defs>
       <use xlink:href="#DejaVuSans-64"/>
       <use xlink:href="#DejaVuSans-69" x="63.476562"/>
       <use xlink:href="#DejaVuSans-73" x="91.259766"/>
       <use xlink:href="#DejaVuSans-67" x="143.359375"/>
       <use xlink:href="#DejaVuSans-75" x="206.835938"/>
       <use xlink:href="#DejaVuSans-73" x="270.214844"/>
       <use xlink:href="#DejaVuSans-74" x="322.314453"/>
      </g>
     </g>
    </g>
    <g id="xtick_3">
     <g id="line2d_3">
      <path d="M 216.818182 145.44 
L 108.718175 170.113121 
" clip-path="url(#p8cbe266d65)" style="fill: none; stroke: #b0b0b0; stroke-width: 0.8; stroke-linecap: square"/>
     </g>
     <g id="text_3">
      <!-- fear -->
      <g transform="translate(89.095434 174.884039)scale(0.06 -0.06)">
       <defs>
        <path id="DejaVuSans-66" d="M 2375 4863 
L 2375 4384 
L 1825 4384 
Q 1516 4384 1395 4259 
Q 1275 4134 1275 3809 
L 1275 3500 
L 2222 3500 
L 2222 3053 
L 1275 3053 
L 1275 0 
L 697 0 
L 697 3053 
L 147 3053 
L 147 3500 
L 697 3500 
L 697 3744 
Q 697 4328 969 4595 
Q 1241 4863 1831 4863 
L 2375 4863 
z
" transform="scale(0.015625)"/>
        <path id="DejaVuSans-65" d="M 3597 1894 
L 3597 1613 
L 953 1613 
Q 991 1019 1311 708 
Q 1631 397 2203 397 
Q 2534 397 2845 478 
Q 3156 559 3463 722 
L 3463 178 
Q 3153 47 2828 -22 
Q 2503 -91 2169 -91 
Q 1331 -91 842 396 
Q 353 884 353 1716 
Q 353 2575 817 3079 
Q 1281 3584 2069 3584 
Q 2775 3584 3186 3129 
Q 3597 2675 3597 1894 
z
M 3022 2063 
Q 3016 2534 2758 2815 
Q 2500 3097 2075 3097 
Q 1594 3097 1305 2825 
Q 1016 2553 972 2059 
L 3022 2063 
z
" transform="scale(0.015625)"/>
       </defs>
       <use xlink:href="#DejaVuSans-66"/>
       <use xlink:href="#DejaVuSans-65" x="35.205078"/>
       <use xlink:href="#DejaVuSans-61" x="96.728516"/>
       <use xlink:href="#DejaVuSans-72" x="158.007812"/>
      </g>
     </g>
    </g>
    <g id="xtick_4">
     <g id="line2d_4">
      <path d="M 216.818182 145.44 
L 168.709153 245.339428 
" clip-path="url(#p8cbe266d65)" style="fill: none; stroke: #b0b0b0; stroke-width: 0.8; stroke-linecap: square"/>
     </g>
     <g id="text_4">
      <!-- happy -->
      <g transform="translate(153.310405 259.608617)scale(0.06 -0.06)">
       <defs>
        <path id="DejaVuSans-68" d="M 3513 2113 
L 3513 0 
L 2938 0 
L 2938 2094 
Q 2938 2591 2744 2837 
Q 2550 3084 2163 3084 
Q 1697 3084 1428 2787 
Q 1159 2491 1159 1978 
L 1159 0 
L 581 0 
L 581 4863 
L 1159 4863 
L 1159 2956 
Q 1366 3272 1645 3428 
Q 1925 3584 2291 3584 
Q 2894 3584 3203 3211 
Q 3513 2838 3513 2113 
z
" transform="scale(0.015625)"/>
        <path id="DejaVuSans-70" d="M 1159 525 
L 1159 -1331 
L 581 -1331 
L 581 3500 
L 1159 3500 
L 1159 2969 
Q 1341 3281 1617 3432 
Q 1894 3584 2278 3584 
Q 2916 3584 3314 3078 
Q 3713 2572 3713 1747 
Q 3713 922 3314 415 
Q 2916 -91 2278 -91 
Q 1894 -91 1617 61 
Q 1341 213 1159 525 
z
M 3116 1747 
Q 3116 2381 2855 2742 
Q 2594 3103 2138 3103 
Q 1681 3103 1420 2742 
Q 1159 2381 1159 1747 
Q 1159 1113 1420 752 
Q 1681 391 2138 391 
Q 2594 391 2855 752 
Q 3116 1113 3116 1747 
z
" transform="scale(0.015625)"/>
       </defs>
       <use xlink:href="#DejaVuSans-68"/>
       <use xlink:href="#DejaVuSans-61" x="63.378906"/>
       <use xlink:href="#DejaVuSans-70" x="124.658203"/>
       <use xlink:href="#DejaVuSans-70" x="188.134766"/>
       <use xlink:href="#DejaVuSans-79" x="251.611328"/>
      </g>
     </g>
    </g>
    <g id="xtick_5">
     <g id="line2d_5">
      <path d="M 216.818182 145.44 
L 264.927211 245.339428 
" clip-path="url(#p8cbe266d65)" style="fill: none; stroke: #b0b0b0; stroke-width: 0.8; stroke-linecap: square"/>
     </g>
     <g id="text_5">
      <!-- sad -->
      <g transform="translate(265.695802 259.608617)scale(0.06 -0.06)">
       <use xlink:href="#DejaVuSans-73"/>
       <use xlink:href="#DejaVuSans-61" x="52.099609"/>
       <use xlink:href="#DejaVuSans-64" x="113.378906"/>
      </g>
     </g>
    </g>
    <g id="xtick_6">
     <g id="line2d_6">
      <path d="M 216.818182 145.44 
L 324.918189 170.113121 
" clip-path="url(#p8cbe266d65)" style="fill: none; stroke: #b0b0b0; stroke-width: 0.8; stroke-linecap: square"/>
     </g>
     <g id="text_6">
      <!-- surprise -->
      <g transform="translate(326.489836 174.884039)scale(0.06 -0.06)">
       <use xlink:href="#DejaVuSans-73"/>
       <use xlink:href="#DejaVuSans-75" x="52.099609"/>
       <use xlink:href="#DejaVuSans-72" x="115.478516"/>
       <use xlink:href="#DejaVuSans-70" x="156.591797"/>
       <use xlink:href="#DejaVuSans-72" x="220.068359"/>
       <use xlink:href="#DejaVuSans-69" x="261.181641"/>
       <use xlink:href="#DejaVuSans-73" x="288.964844"/>
       <use xlink:href="#DejaVuSans-65" x="341.064453"/>
      </g>
     </g>
    </g>
    <g id="xtick_7">
     <g id="line2d_7">
      <path d="M 216.818182 145.44 
L 303.507657 76.307451 
" clip-path="url(#p8cbe266d65)" style="fill: none; stroke: #b0b0b0; stroke-width: 0.8; stroke-linecap: square"/>
     </g>
     <g id="text_7">
      <!-- neutral -->
      <g transform="translate(303.72361 69.234219)scale(0.06 -0.06)">
       <defs>
        <path id="DejaVuSans-6c" d="M 603 4863 
L 1178 4863 
L 1178 0 
L 603 0 
L 603 4863 
z
" transform="scale(0.015625)"/>
       </defs>
       <use xlink:href="#DejaVuSans-6e"/>
       <use xlink:href="#DejaVuSans-65" x="63.378906"/>
       <use xlink:href="#DejaVuSans-75" x="124.902344"/>
       <use xlink:href="#DejaVuSans-74" x="188.28125"/>
       <use xlink:href="#DejaVuSans-72" x="227.490234"/>
       <use xlink:href="#DejaVuSans-61" x="268.603516"/>
       <use xlink:href="#DejaVuSans-6c" x="329.882812"/>
      </g>
     </g>
    </g>
   </g>
   <g id="matplotlib.axis_2">
    <g id="ytick_1">
     <g id="line2d_8">
      <path d="M 216.818182 128.203631 
C 214.554723 128.203631 212.313273 128.649484 210.222109 129.515672 
C 208.130946 130.38186 206.230736 131.65154 204.630229 133.252047 
C 203.029721 134.852554 201.760042 136.752764 200.893854 138.843927 
C 200.027665 140.935091 199.581813 143.176541 199.581813 145.44 
C 199.581813 147.703459 200.027665 149.944909 200.893854 152.036073 
C 201.760042 154.127236 203.029721 156.027446 204.630229 157.627953 
C 206.230736 159.22846 208.130946 160.49814 210.222109 161.364328 
C 212.313273 162.230516 214.554723 162.676369 216.818182 162.676369 
C 219.081641 162.676369 221.323091 162.230516 223.414254 161.364328 
C 225.505418 160.49814 227.405628 159.22846 229.006135 157.627953 
C 230.606642 156.027446 231.876322 154.127236 232.74251 152.036073 
C 233.608698 149.944909 234.05455 147.703459 234.05455 145.44 
C 234.05455 143.176541 233.608698 140.935091 232.74251 138.843927 
C 231.876322 136.752764 230.606642 134.852554 229.006135 133.252047 
C 227.405628 131.65154 225.505418 130.38186 223.414254 129.515672 
C 221.323091 128.649484 219.081641 128.203631 216.818182 128.203631 
" clip-path="url(#p8cbe266d65)" style="fill: none; stroke: #b0b0b0; stroke-width: 0.8; stroke-linecap: square"/>
     </g>
    </g>
    <g id="ytick_2">
     <g id="line2d_9">
      <path d="M 216.818182 110.967263 
C 212.291263 110.967263 207.808364 111.858967 203.626036 113.591344 
C 199.443709 115.32372 195.64329 117.863079 192.442276 121.064094 
C 189.241261 124.265108 186.701902 128.065527 184.969526 132.247855 
C 183.237149 136.430182 182.345445 140.913082 182.345445 145.44 
C 182.345445 149.966918 183.237149 154.449818 184.969526 158.632145 
C 186.701902 162.814473 189.241261 166.614892 192.442276 169.815906 
C 195.64329 173.016921 199.443709 175.55628 203.626036 177.288656 
C 207.808364 179.021033 212.291263 179.912737 216.818182 179.912737 
C 221.3451 179.912737 225.828 179.021033 230.010327 177.288656 
C 234.192654 175.55628 237.993073 173.016921 241.194088 169.815906 
C 244.395103 166.614892 246.934461 162.814473 248.666838 158.632145 
C 250.399215 154.449818 251.290919 149.966918 251.290919 145.44 
C 251.290919 140.913082 250.399215 136.430182 248.666838 132.247855 
C 246.934461 128.065527 244.395103 124.265108 241.194088 121.064094 
C 237.993073 117.863079 234.192654 115.32372 230.010327 113.591344 
C 225.828 111.858967 221.3451 110.967263 216.818182 110.967263 
" clip-path="url(#p8cbe266d65)" style="fill: none; stroke: #b0b0b0; stroke-width: 0.8; stroke-linecap: square"/>
     </g>
    </g>
    <g id="ytick_3">
     <g id="line2d_10">
      <path d="M 216.818182 93.730894 
C 210.027804 93.730894 203.303455 95.068451 197.029964 97.667016 
C 190.756473 100.265581 185.055845 104.074619 180.254323 108.876141 
C 175.452801 113.677663 171.643762 119.378291 169.045197 125.651782 
C 166.446632 131.925273 165.109076 138.649622 165.109076 145.44 
C 165.109076 152.230378 166.446632 158.954727 169.045197 165.228218 
C 171.643762 171.501709 175.452801 177.202337 180.254323 182.003859 
C 185.055845 186.805381 190.756473 190.614419 197.029964 193.212984 
C 203.303455 195.811549 210.027804 197.149106 216.818182 197.149106 
C 223.608559 197.149106 230.332909 195.811549 236.6064 193.212984 
C 242.879891 190.614419 248.580519 186.805381 253.382041 182.003859 
C 258.183563 177.202337 261.992601 171.501709 264.591166 165.228218 
C 267.189731 158.954727 268.527287 152.230378 268.527287 145.44 
C 268.527287 138.649622 267.189731 131.925273 264.591166 125.651782 
C 261.992601 119.378291 258.183563 113.677663 253.382041 108.876141 
C 248.580519 104.074619 242.879891 100.265581 236.6064 97.667016 
C 230.332909 95.068451 223.608559 93.730894 216.818182 93.730894 
" clip-path="url(#p8cbe266d65)" style="fill: none; stroke: #b0b0b0; stroke-width: 0.8; stroke-linecap: square"/>
     </g>
    </g>
    <g id="ytick_4">
     <g id="line2d_11">
      <path d="M 216.818182 76.494526 
C 207.764345 76.494526 198.798546 78.277934 190.433891 81.742687 
C 182.069237 85.207441 174.468399 90.286158 168.066369 96.688188 
C 161.66434 103.090217 156.585623 110.691055 153.120869 119.055709 
C 149.656116 127.420364 147.872708 136.386163 147.872708 145.44 
C 147.872708 154.493837 149.656116 163.459636 153.120869 171.824291 
C 156.585623 180.188945 161.66434 187.789783 168.066369 194.191812 
C 174.468399 200.593842 182.069237 205.672559 190.433891 209.137313 
C 198.798546 212.602066 207.764345 214.385474 216.818182 214.385474 
C 225.872019 214.385474 234.837818 212.602066 243.202473 209.137313 
C 251.567127 205.672559 259.167965 200.593842 265.569994 194.191812 
C 271.972024 187.789783 277.050741 180.188945 280.515494 171.824291 
C 283.980248 163.459636 285.763656 154.493837 285.763656 145.44 
C 285.763656 136.386163 283.980248 127.420364 280.515494 119.055709 
C 277.050741 110.691055 271.972024 103.090217 265.569994 96.688188 
C 259.167965 90.286158 251.567127 85.207441 243.202473 81.742687 
C 234.837818 78.277934 225.872019 76.494526 216.818182 76.494526 
" clip-path="url(#p8cbe266d65)" style="fill: none; stroke: #b0b0b0; stroke-width: 0.8; stroke-linecap: square"/>
     </g>
    </g>
    <g id="ytick_5">
     <g id="line2d_12">
      <path d="M 216.818182 59.258157 
C 205.500886 59.258157 194.293636 61.487418 183.837818 65.818359 
C 173.382 70.149301 163.880953 76.497698 155.878416 84.500235 
C 147.87588 92.502771 141.527483 102.003819 137.196541 112.459637 
C 132.8656 122.915455 130.636339 134.122704 130.636339 145.44 
C 130.636339 156.757296 132.8656 167.964545 137.196541 178.420363 
C 141.527483 188.876181 147.87588 198.377229 155.878416 206.379765 
C 163.880953 214.382302 173.382 220.730699 183.837818 225.061641 
C 194.293636 229.392582 205.500886 231.621843 216.818182 231.621843 
C 228.135478 231.621843 239.342727 229.392582 249.798545 225.061641 
C 260.254363 220.730699 269.755411 214.382302 277.757947 206.379765 
C 285.760484 198.377229 292.108881 188.876181 296.439822 178.420363 
C 300.770764 167.964545 303.000025 156.757296 303.000025 145.44 
C 303.000025 134.122704 300.770764 122.915455 296.439822 112.459637 
C 292.108881 102.003819 285.760484 92.502771 277.757947 84.500235 
C 269.755411 76.497698 260.254363 70.149301 249.798545 65.818359 
C 239.342727 61.487418 228.135478 59.258157 216.818182 59.258157 
" clip-path="url(#p8cbe266d65)" style="fill: none; stroke: #b0b0b0; stroke-width: 0.8; stroke-linecap: square"/>
     </g>
    </g>
    <g id="ytick_6">
     <g id="line2d_13">
      <path d="M 216.818182 42.021789 
C 203.237427 42.021789 189.788727 44.696901 177.241746 49.894031 
C 164.694764 55.091161 153.293507 62.709237 143.690463 72.312281 
C 134.087419 81.915325 126.469343 93.316582 121.272213 105.863564 
C 116.075083 118.410546 113.39997 131.859245 113.39997 145.44 
C 113.39997 159.020755 116.075083 172.469454 121.272213 185.016436 
C 126.469343 197.563418 134.087419 208.964675 143.690463 218.567719 
C 153.293507 228.170763 164.694764 235.788839 177.241746 240.985969 
C 189.788727 246.183099 203.237427 248.858211 216.818182 248.858211 
C 230.398937 248.858211 243.847636 246.183099 256.394618 240.985969 
C 268.9416 235.788839 280.342856 228.170763 289.9459 218.567719 
C 299.548944 208.964675 307.167021 197.563418 312.364151 185.016436 
C 317.561281 172.469454 320.236393 159.020755 320.236393 145.44 
C 320.236393 131.859245 317.561281 118.410546 312.364151 105.863564 
C 307.167021 93.316582 299.548944 81.915325 289.9459 72.312281 
C 280.342856 62.709237 268.9416 55.091161 256.394618 49.894031 
C 243.847636 44.696901 230.398937 42.021789 216.818182 42.021789 
" clip-path="url(#p8cbe266d65)" style="fill: none; stroke: #b0b0b0; stroke-width: 0.8; stroke-linecap: square"/>
     </g>
    </g>
   </g>
   <g id="line2d_14">
    <path d="M 216.818182 105.899253 
L 185.903981 120.786747 
L 178.268804 154.238644 
L 170.183102 242.27874 
L 233.974269 181.064982 
L 255.36756 154.238644 
L 247.732383 120.786747 
L 216.818182 105.899253 
" clip-path="url(#p8cbe266d65)" style="fill: none; stroke: #ff0000; stroke-width: 1.5; stroke-linecap: square"/>
   </g>
   <g id="patch_4">
    <path d="M 216.818182 34.56 
L 130.128707 76.307451 
L 108.718175 170.113121 
L 168.709153 245.339428 
L 264.927211 245.339428 
L 324.918189 170.113121 
L 303.507657 76.307451 
L 216.818182 34.56 
z
" style="fill: none; stroke: #000000; stroke-width: 0.8; stroke-linejoin: miter; stroke-linecap: square"/>
   </g>
   <g id="text_8">
    <!-- Gender:Male    Age:57 -->
    <g transform="translate(176.540932 11.656563)scale(0.072 -0.072)">
     <defs>
      <path id="DejaVuSans-47" d="M 3809 666 
L 3809 1919 
L 2778 1919 
L 2778 2438 
L 4434 2438 
L 4434 434 
Q 4069 175 3628 42 
Q 3188 -91 2688 -91 
Q 1594 -91 976 548 
Q 359 1188 359 2328 
Q 359 3472 976 4111 
Q 1594 4750 2688 4750 
Q 3144 4750 3555 4637 
Q 3966 4525 4313 4306 
L 4313 3634 
Q 3963 3931 3569 4081 
Q 3175 4231 2741 4231 
Q 1884 4231 1454 3753 
Q 1025 3275 1025 2328 
Q 1025 1384 1454 906 
Q 1884 428 2741 428 
Q 3075 428 3337 486 
Q 3600 544 3809 666 
z
" transform="scale(0.015625)"/>
      <path id="DejaVuSans-3a" d="M 750 794 
L 1409 794 
L 1409 0 
L 750 0 
L 750 794 
z
M 750 3309 
L 1409 3309 
L 1409 2516 
L 750 2516 
L 750 3309 
z
" transform="scale(0.015625)"/>
      <path id="DejaVuSans-4d" d="M 628 4666 
L 1569 4666 
L 2759 1491 
L 3956 4666 
L 4897 4666 
L 4897 0 
L 4281 0 
L 4281 4097 
L 3078 897 
L 2444 897 
L 1241 4097 
L 1241 0 
L 628 0 
L 628 4666 
z
" transform="scale(0.015625)"/>
      <path id="DejaVuSans-20" transform="scale(0.015625)"/>
      <path id="DejaVuSans-41" d="M 2188 4044 
L 1331 1722 
L 3047 1722 
L 2188 4044 
z
M 1831 4666 
L 2547 4666 
L 4325 0 
L 3669 0 
L 3244 1197 
L 1141 1197 
L 716 0 
L 50 0 
L 1831 4666 
z
" transform="scale(0.015625)"/>
      <path id="DejaVuSans-35" d="M 691 4666 
L 3169 4666 
L 3169 4134 
L 1269 4134 
L 1269 2991 
Q 1406 3038 1543 3061 
Q 1681 3084 1819 3084 
Q 2600 3084 3056 2656 
Q 3513 2228 3513 1497 
Q 3513 744 3044 326 
Q 2575 -91 1722 -91 
Q 1428 -91 1123 -41 
Q 819 9 494 109 
L 494 744 
Q 775 591 1075 516 
Q 1375 441 1709 441 
Q 2250 441 2565 725 
Q 2881 1009 2881 1497 
Q 2881 1984 2565 2268 
Q 2250 2553 1709 2553 
Q 1456 2553 1204 2497 
Q 953 2441 691 2322 
L 691 4666 
z
" transform="scale(0.015625)"/>
      <path id="DejaVuSans-37" d="M 525 4666 
L 3525 4666 
L 3525 4397 
L 1831 0 
L 1172 0 
L 2766 4134 
L 525 4134 
L 525 4666 
z
" transform="scale(0.015625)"/>
     </defs>
     <use xlink:href="#DejaVuSans-47"/>
     <use xlink:href="#DejaVuSans-65" x="77.490234"/>
     <use xlink:href="#DejaVuSans-6e" x="139.013672"/>
     <use xlink:href="#DejaVuSans-64" x="202.392578"/>
     <use xlink:href="#DejaVuSans-65" x="265.869141"/>
     <use xlink:href="#DejaVuSans-72" x="327.392578"/>
     <use xlink:href="#DejaVuSans-3a" x="366.755859"/>
     <use xlink:href="#DejaVuSans-4d" x="400.447266"/>
     <use xlink:href="#DejaVuSans-61" x="486.726562"/>
     <use xlink:href="#DejaVuSans-6c" x="548.005859"/>
     <use xlink:href="#DejaVuSans-65" x="575.789062"/>
     <use xlink:href="#DejaVuSans-20" x="637.3125"/>
     <use xlink:href="#DejaVuSans-20" x="669.099609"/>
     <use xlink:href="#DejaVuSans-20" x="700.886719"/>
     <use xlink:href="#DejaVuSans-20" x="732.673828"/>
     <use xlink:href="#DejaVuSans-41" x="764.460938"/>
     <use xlink:href="#DejaVuSans-67" x="832.869141"/>
     <use xlink:href="#DejaVuSans-65" x="896.345703"/>
     <use xlink:href="#DejaVuSans-3a" x="957.869141"/>
     <use xlink:href="#DejaVuSans-35" x="991.560547"/>
     <use xlink:href="#DejaVuSans-37" x="1055.183594"/>
    </g>
   </g>
  </g>
  <g id="axes_2">
   <g id="patch_5">
    <path d="M 521.181818 34.56 
L 434.492343 76.307451 
L 413.081811 170.113121 
L 473.072789 245.339428 
L 569.290847 245.339428 
L 629.281825 170.113121 
L 607.871293 76.307451 
z
" style="fill: #ffffff"/>
   </g>
   <g id="patch_6">
    <path d="M 521.181818 104.058357 
L 489.088298 119.846272 
L 481.090166 154.590658 
L 474.515755 242.343079 
L 539.453905 183.38238 
L 561.193215 154.57234 
L 553.276779 119.845123 
z
" clip-path="url(#p88d6a05b89)" style="fill: #ff0000; opacity: 0.5"/>
   </g>
   <g id="matplotlib.axis_3">
    <g id="xtick_8">
     <g id="line2d_15">
      <path d="M 521.181818 145.44 
L 521.181818 34.56 
" clip-path="url(#p88d6a05b89)" style="fill: none; stroke: #b0b0b0; stroke-width: 0.8; stroke-linecap: square"/>
     </g>
     <g id="text_9">
      <!-- angry -->
      <g transform="translate(512.528693 22.215625)scale(0.06 -0.06)">
       <use xlink:href="#DejaVuSans-61"/>
       <use xlink:href="#DejaVuSans-6e" x="61.279297"/>
       <use xlink:href="#DejaVuSans-67" x="124.658203"/>
       <use xlink:href="#DejaVuSans-72" x="188.134766"/>
       <use xlink:href="#DejaVuSans-79" x="229.248047"/>
      </g>
     </g>
    </g>
    <g id="xtick_9">
     <g id="line2d_16">
      <path d="M 521.181818 145.44 
L 434.492343 76.307451 
" clip-path="url(#p88d6a05b89)" style="fill: none; stroke: #b0b0b0; stroke-width: 0.8; stroke-linecap: square"/>
     </g>
     <g id="text_10">
      <!-- disgust -->
      <g transform="translate(412.701234 69.234219)scale(0.06 -0.06)">
       <use xlink:href="#DejaVuSans-64"/>
       <use xlink:href="#DejaVuSans-69" x="63.476562"/>
       <use xlink:href="#DejaVuSans-73" x="91.259766"/>
       <use xlink:href="#DejaVuSans-67" x="143.359375"/>
       <use xlink:href="#DejaVuSans-75" x="206.835938"/>
       <use xlink:href="#DejaVuSans-73" x="270.214844"/>
       <use xlink:href="#DejaVuSans-74" x="322.314453"/>
      </g>
     </g>
    </g>
    <g id="xtick_10">
     <g id="line2d_17">
      <path d="M 521.181818 145.44 
L 413.081811 170.113121 
" clip-path="url(#p88d6a05b89)" style="fill: none; stroke: #b0b0b0; stroke-width: 0.8; stroke-linecap: square"/>
     </g>
     <g id="text_11">
      <!-- fear -->
      <g transform="translate(393.459071 174.884039)scale(0.06 -0.06)">
       <use xlink:href="#DejaVuSans-66"/>
       <use xlink:href="#DejaVuSans-65" x="35.205078"/>
       <use xlink:href="#DejaVuSans-61" x="96.728516"/>
       <use xlink:href="#DejaVuSans-72" x="158.007812"/>
      </g>
     </g>
    </g>
    <g id="xtick_11">
     <g id="line2d_18">
      <path d="M 521.181818 145.44 
L 473.072789 245.339428 
" clip-path="url(#p88d6a05b89)" style="fill: none; stroke: #b0b0b0; stroke-width: 0.8; stroke-linecap: square"/>
     </g>
     <g id="text_12">
      <!-- happy -->
      <g transform="translate(457.674042 259.608617)scale(0.06 -0.06)">
       <use xlink:href="#DejaVuSans-68"/>
       <use xlink:href="#DejaVuSans-61" x="63.378906"/>
       <use xlink:href="#DejaVuSans-70" x="124.658203"/>
       <use xlink:href="#DejaVuSans-70" x="188.134766"/>
       <use xlink:href="#DejaVuSans-79" x="251.611328"/>
      </g>
     </g>
    </g>
    <g id="xtick_12">
     <g id="line2d_19">
      <path d="M 521.181818 145.44 
L 569.290847 245.339428 
" clip-path="url(#p88d6a05b89)" style="fill: none; stroke: #b0b0b0; stroke-width: 0.8; stroke-linecap: square"/>
     </g>
     <g id="text_13">
      <!-- sad -->
      <g transform="translate(570.059438 259.608617)scale(0.06 -0.06)">
       <use xlink:href="#DejaVuSans-73"/>
       <use xlink:href="#DejaVuSans-61" x="52.099609"/>
       <use xlink:href="#DejaVuSans-64" x="113.378906"/>
      </g>
     </g>
    </g>
    <g id="xtick_13">
     <g id="line2d_20">
      <path d="M 521.181818 145.44 
L 629.281825 170.113121 
" clip-path="url(#p88d6a05b89)" style="fill: none; stroke: #b0b0b0; stroke-width: 0.8; stroke-linecap: square"/>
     </g>
     <g id="text_14">
      <!-- surprise -->
      <g transform="translate(630.853472 174.884039)scale(0.06 -0.06)">
       <use xlink:href="#DejaVuSans-73"/>
       <use xlink:href="#DejaVuSans-75" x="52.099609"/>
       <use xlink:href="#DejaVuSans-72" x="115.478516"/>
       <use xlink:href="#DejaVuSans-70" x="156.591797"/>
       <use xlink:href="#DejaVuSans-72" x="220.068359"/>
       <use xlink:href="#DejaVuSans-69" x="261.181641"/>
       <use xlink:href="#DejaVuSans-73" x="288.964844"/>
       <use xlink:href="#DejaVuSans-65" x="341.064453"/>
      </g>
     </g>
    </g>
    <g id="xtick_14">
     <g id="line2d_21">
      <path d="M 521.181818 145.44 
L 607.871293 76.307451 
" clip-path="url(#p88d6a05b89)" style="fill: none; stroke: #b0b0b0; stroke-width: 0.8; stroke-linecap: square"/>
     </g>
     <g id="text_15">
      <!-- neutral -->
      <g transform="translate(608.087246 69.234219)scale(0.06 -0.06)">
       <use xlink:href="#DejaVuSans-6e"/>
       <use xlink:href="#DejaVuSans-65" x="63.378906"/>
       <use xlink:href="#DejaVuSans-75" x="124.902344"/>
       <use xlink:href="#DejaVuSans-74" x="188.28125"/>
       <use xlink:href="#DejaVuSans-72" x="227.490234"/>
       <use xlink:href="#DejaVuSans-61" x="268.603516"/>
       <use xlink:href="#DejaVuSans-6c" x="329.882812"/>
      </g>
     </g>
    </g>
   </g>
   <g id="matplotlib.axis_4">
    <g id="ytick_7">
     <g id="line2d_22">
      <path d="M 521.181818 127.6744 
C 518.848861 127.6744 516.538589 128.133942 514.383217 129.026726 
C 512.227846 129.91951 510.269292 131.228174 508.619642 132.877824 
C 506.969992 134.527474 505.661328 136.486028 504.768544 138.641399 
C 503.87576 140.796771 503.416218 143.107043 503.416218 145.44 
C 503.416218 147.772957 503.87576 150.083229 504.768544 152.238601 
C 505.661328 154.393972 506.969992 156.352526 508.619642 158.002176 
C 510.269292 159.651826 512.227846 160.96049 514.383217 161.853274 
C 516.538589 162.746058 518.848861 163.2056 521.181818 163.2056 
C 523.514775 163.2056 525.825048 162.746058 527.980419 161.853274 
C 530.13579 160.96049 532.094345 159.651826 533.743994 158.002176 
C 535.393644 156.352526 536.702308 154.393972 537.595093 152.238601 
C 538.487877 150.083229 538.947418 147.772957 538.947418 145.44 
C 538.947418 143.107043 538.487877 140.796771 537.595093 138.641399 
C 536.702308 136.486028 535.393644 134.527474 533.743994 132.877824 
C 532.094345 131.228174 530.13579 129.91951 527.980419 129.026726 
C 525.825048 128.133942 523.514775 127.6744 521.181818 127.6744 
" clip-path="url(#p88d6a05b89)" style="fill: none; stroke: #b0b0b0; stroke-width: 0.8; stroke-linecap: square"/>
     </g>
    </g>
    <g id="ytick_8">
     <g id="line2d_23">
      <path d="M 521.181818 109.9088 
C 516.515904 109.9088 511.895359 110.827883 507.584617 112.613451 
C 503.273874 114.39902 499.356765 117.016348 496.057466 120.315647 
C 492.758166 123.614947 490.140838 127.532055 488.35527 131.842798 
C 486.569701 136.153541 485.650618 140.774086 485.650618 145.44 
C 485.650618 150.105914 486.569701 154.726459 488.35527 159.037202 
C 490.140838 163.347945 492.758166 167.265053 496.057466 170.564353 
C 499.356765 173.863652 503.273874 176.48098 507.584617 178.266549 
C 511.895359 180.052117 516.515904 180.9712 521.181818 180.9712 
C 525.847733 180.9712 530.468277 180.052117 534.77902 178.266549 
C 539.089763 176.48098 543.006871 173.863652 546.306171 170.564353 
C 549.605471 167.265053 552.222799 163.347945 554.008367 159.037202 
C 555.793935 154.726459 556.713018 150.105914 556.713018 145.44 
C 556.713018 140.774086 555.793935 136.153541 554.008367 131.842798 
C 552.222799 127.532055 549.605471 123.614947 546.306171 120.315647 
C 543.006871 117.016348 539.089763 114.39902 534.77902 112.613451 
C 530.468277 110.827883 525.847733 109.9088 521.181818 109.9088 
" clip-path="url(#p88d6a05b89)" style="fill: none; stroke: #b0b0b0; stroke-width: 0.8; stroke-linecap: square"/>
     </g>
    </g>
    <g id="ytick_9">
     <g id="line2d_24">
      <path d="M 521.181818 92.1432 
C 514.182946 92.1432 507.25213 93.521825 500.786016 96.200177 
C 494.319901 98.878529 488.444239 102.804521 483.495289 107.753471 
C 478.54634 112.702421 474.620347 118.578083 471.941995 125.044198 
C 469.263643 131.510312 467.885018 138.441128 467.885018 145.44 
C 467.885018 152.438872 469.263643 159.369688 471.941995 165.835802 
C 474.620347 172.301917 478.54634 178.177579 483.495289 183.126529 
C 488.444239 188.075479 494.319901 192.001471 500.786016 194.679823 
C 507.25213 197.358175 514.182946 198.7368 521.181818 198.7368 
C 528.18069 198.7368 535.111506 197.358175 541.577621 194.679823 
C 548.043735 192.001471 553.919397 188.075479 558.868347 183.126529 
C 563.817297 178.177579 567.743289 172.301917 570.421641 165.835802 
C 573.099993 159.369688 574.478619 152.438872 574.478619 145.44 
C 574.478619 138.441128 573.099993 131.510312 570.421641 125.044198 
C 567.743289 118.578083 563.817297 112.702421 558.868347 107.753471 
C 553.919397 102.804521 548.043735 98.878529 541.577621 96.200177 
C 535.111506 93.521825 528.18069 92.1432 521.181818 92.1432 
" clip-path="url(#p88d6a05b89)" style="fill: none; stroke: #b0b0b0; stroke-width: 0.8; stroke-linecap: square"/>
     </g>
    </g>
    <g id="ytick_10">
     <g id="line2d_25">
      <path d="M 521.181818 74.3776 
C 511.849989 74.3776 502.608901 76.215766 493.987415 79.786903 
C 485.365929 83.358039 477.531712 88.592695 470.933113 95.191295 
C 464.334513 101.789894 459.099857 109.624111 455.528721 118.245597 
C 451.957585 126.867082 450.119418 136.108171 450.119418 145.44 
C 450.119418 154.771829 451.957585 164.012918 455.528721 172.634403 
C 459.099857 181.255889 464.334513 189.090106 470.933113 195.688705 
C 477.531712 202.287305 485.365929 207.521961 493.987415 211.093097 
C 502.608901 214.664234 511.849989 216.5024 521.181818 216.5024 
C 530.513647 216.5024 539.754736 214.664234 548.376221 211.093097 
C 556.997707 207.521961 564.831924 202.287305 571.430523 195.688705 
C 578.029123 189.090106 583.263779 181.255889 586.834915 172.634403 
C 590.406052 164.012918 592.244219 154.771829 592.244219 145.44 
C 592.244219 136.108171 590.406052 126.867082 586.834915 118.245597 
C 583.263779 109.624111 578.029123 101.789894 571.430523 95.191295 
C 564.831924 88.592695 556.997707 83.358039 548.376221 79.786903 
C 539.754736 76.215766 530.513647 74.3776 521.181818 74.3776 
" clip-path="url(#p88d6a05b89)" style="fill: none; stroke: #b0b0b0; stroke-width: 0.8; stroke-linecap: square"/>
     </g>
    </g>
    <g id="ytick_11">
     <g id="line2d_26">
      <path d="M 521.181818 56.611999 
C 509.517032 56.611999 497.965671 58.909708 487.188814 63.373628 
C 476.411957 67.837549 466.619186 74.380869 458.370937 82.629118 
C 450.122687 90.877368 443.579367 100.670139 439.115447 111.446996 
C 434.651526 122.223853 432.353818 133.775214 432.353818 145.44 
C 432.353818 157.104786 434.651526 168.656147 439.115447 179.433004 
C 443.579367 190.209861 450.122687 200.002632 458.370937 208.250882 
C 466.619186 216.499131 476.411957 223.042451 487.188814 227.506372 
C 497.965671 231.970292 509.517032 234.268001 521.181818 234.268001 
C 532.846604 234.268001 544.397965 231.970292 555.174822 227.506372 
C 565.951679 223.042451 575.74445 216.499131 583.9927 208.250882 
C 592.240949 200.002632 598.784269 190.209861 603.24819 179.433004 
C 607.71211 168.656147 610.009819 157.104786 610.009819 145.44 
C 610.009819 133.775214 607.71211 122.223853 603.24819 111.446996 
C 598.784269 100.670139 592.240949 90.877368 583.9927 82.629118 
C 575.74445 74.380869 565.951679 67.837549 555.174822 63.373628 
C 544.397965 58.909708 532.846604 56.611999 521.181818 56.611999 
" clip-path="url(#p88d6a05b89)" style="fill: none; stroke: #b0b0b0; stroke-width: 0.8; stroke-linecap: square"/>
     </g>
    </g>
    <g id="ytick_12">
     <g id="line2d_27">
      <path d="M 521.181818 38.846399 
C 507.184075 38.846399 493.322442 41.60365 480.390213 46.960354 
C 467.457985 52.317059 455.70666 60.169043 445.80876 70.066942 
C 435.910861 79.964841 428.058877 91.716166 422.702172 104.648395 
C 417.345468 117.580624 414.588218 131.442257 414.588218 145.44 
C 414.588218 159.437743 417.345468 173.299376 422.702172 186.231605 
C 428.058877 199.163834 435.910861 210.915159 445.80876 220.813058 
C 455.70666 230.710957 467.457985 238.562941 480.390213 243.919646 
C 493.322442 249.27635 507.184075 252.033601 521.181818 252.033601 
C 535.179562 252.033601 549.041195 249.27635 561.973423 243.919646 
C 574.905652 238.562941 586.656977 230.710957 596.554876 220.813058 
C 606.452775 210.915159 614.30476 199.163834 619.661464 186.231605 
C 625.018169 173.299376 627.775419 159.437743 627.775419 145.44 
C 627.775419 131.442257 625.018169 117.580624 619.661464 104.648395 
C 614.30476 91.716166 606.452775 79.964841 596.554876 70.066942 
C 586.656977 60.169043 574.905652 52.317059 561.973423 46.960354 
C 549.041195 41.60365 535.179562 38.846399 521.181818 38.846399 
" clip-path="url(#p88d6a05b89)" style="fill: none; stroke: #b0b0b0; stroke-width: 0.8; stroke-linecap: square"/>
     </g>
    </g>
   </g>
   <g id="line2d_28">
    <path d="M 521.181818 104.058357 
L 489.088298 119.846272 
L 481.090166 154.590658 
L 474.515755 242.343079 
L 539.453905 183.38238 
L 561.193215 154.57234 
L 553.276779 119.845123 
L 521.181818 104.058357 
" clip-path="url(#p88d6a05b89)" style="fill: none; stroke: #ff0000; stroke-width: 1.5; stroke-linecap: square"/>
   </g>
   <g id="patch_7">
    <path d="M 521.181818 34.56 
L 434.492343 76.307451 
L 413.081811 170.113121 
L 473.072789 245.339428 
L 569.290847 245.339428 
L 629.281825 170.113121 
L 607.871293 76.307451 
L 521.181818 34.56 
z
" style="fill: none; stroke: #000000; stroke-width: 0.8; stroke-linejoin: miter; stroke-linecap: square"/>
   </g>
   <g id="text_16">
    <!-- Gender:Male    Age:73 -->
    <g transform="translate(480.904568 11.656563)scale(0.072 -0.072)">
     <defs>
      <path id="DejaVuSans-33" d="M 2597 2516 
Q 3050 2419 3304 2112 
Q 3559 1806 3559 1356 
Q 3559 666 3084 287 
Q 2609 -91 1734 -91 
Q 1441 -91 1130 -33 
Q 819 25 488 141 
L 488 750 
Q 750 597 1062 519 
Q 1375 441 1716 441 
Q 2309 441 2620 675 
Q 2931 909 2931 1356 
Q 2931 1769 2642 2001 
Q 2353 2234 1838 2234 
L 1294 2234 
L 1294 2753 
L 1863 2753 
Q 2328 2753 2575 2939 
Q 2822 3125 2822 3475 
Q 2822 3834 2567 4026 
Q 2313 4219 1838 4219 
Q 1578 4219 1281 4162 
Q 984 4106 628 3988 
L 628 4550 
Q 988 4650 1302 4700 
Q 1616 4750 1894 4750 
Q 2613 4750 3031 4423 
Q 3450 4097 3450 3541 
Q 3450 3153 3228 2886 
Q 3006 2619 2597 2516 
z
" transform="scale(0.015625)"/>
     </defs>
     <use xlink:href="#DejaVuSans-47"/>
     <use xlink:href="#DejaVuSans-65" x="77.490234"/>
     <use xlink:href="#DejaVuSans-6e" x="139.013672"/>
     <use xlink:href="#DejaVuSans-64" x="202.392578"/>
     <use xlink:href="#DejaVuSans-65" x="265.869141"/>
     <use xlink:href="#DejaVuSans-72" x="327.392578"/>
     <use xlink:href="#DejaVuSans-3a" x="366.755859"/>
     <use xlink:href="#DejaVuSans-4d" x="400.447266"/>
     <use xlink:href="#DejaVuSans-61" x="486.726562"/>
     <use xlink:href="#DejaVuSans-6c" x="548.005859"/>
     <use xlink:href="#DejaVuSans-65" x="575.789062"/>
     <use xlink:href="#DejaVuSans-20" x="637.3125"/>
     <use xlink:href="#DejaVuSans-20" x="669.099609"/>
     <use xlink:href="#DejaVuSans-20" x="700.886719"/>
     <use xlink:href="#DejaVuSans-20" x="732.673828"/>
     <use xlink:href="#DejaVuSans-41" x="764.460938"/>
     <use xlink:href="#DejaVuSans-67" x="832.869141"/>
     <use xlink:href="#DejaVuSans-65" x="896.345703"/>
     <use xlink:href="#DejaVuSans-3a" x="957.869141"/>
     <use xlink:href="#DejaVuSans-37" x="991.560547"/>
     <use xlink:href="#DejaVuSans-33" x="1055.183594"/>
    </g>
   </g>
  </g>
 </g>
 <defs>
  <clipPath id="p8cbe266d65">
   <path d="M 216.818182 34.56 
L 130.128707 76.307451 
L 108.718175 170.113121 
L 168.709153 245.339428 
L 264.927211 245.339428 
L 324.918189 170.113121 
L 303.507657 76.307451 
z
"/>
  </clipPath>
  <clipPath id="p88d6a05b89">
   <path d="M 521.181818 34.56 
L 434.492343 76.307451 
L 413.081811 170.113121 
L 473.072789 245.339428 
L 569.290847 245.339428 
L 629.281825 170.113121 
L 607.871293 76.307451 
z
"/>
  </clipPath>
 </defs>
</svg>
